<svg width="220" height="76" viewBox="0 0 220 76" fill="none" xmlns="http://www.w3.org/2000/svg">
<mask id="mask0_15_2477" style="mask-type:luminance" maskUnits="userSpaceOnUse" x="0" y="0" width="77" height="76">
<path d="M0 0H76.6844V76H0V0Z" fill="white"/>
</mask>
<g mask="url(#mask0_15_2477)">
<path d="M38.1535 75.9998C17.1877 75.9998 0.130615 58.9957 0.130615 38.1004C0.130615 17.205 17.2335 -1.21023 38.1535 0.204427C60.139 1.69317 77.7428 19.4911 76.173 38.1004C74.4196 58.9251 59.1159 75.9998 38.1535 75.9998ZM38.1535 3.06197C18.7681 3.06197 2.99874 18.782 2.99874 38.1004C2.99874 57.4223 18.7681 73.1387 38.1535 73.1387C57.5354 73.1387 73.3048 57.4223 73.3048 38.1004C73.3048 18.782 57.5354 3.06197 38.1535 3.06197Z" fill="#37AAE1"/>
</g>
<path d="M38.1529 69.8474C20.5914 69.8474 6.30371 55.6055 6.30371 38.1004C6.30371 20.5954 20.5914 6.35352 38.1529 6.35352C55.7145 6.35352 70.0022 20.5954 70.0022 38.1004C70.0022 55.6055 55.7145 69.8474 38.1529 69.8474ZM38.1529 9.21458C22.1719 9.21458 9.16831 22.1758 9.16831 38.104C9.16831 54.0356 22.1719 66.9898 38.1529 66.9898C54.134 66.9898 67.1341 54.0321 67.1341 38.104C67.1341 22.1794 54.134 9.21458 38.1529 9.21458Z" fill="#37AAE1"/>
<path d="M44.1118 24.2925H33.2179L31.2212 28.1308L28.6917 26.8219L23.7774 35.3028L25.5025 38.1639L25.4673 38.1004L31.8103 27.1535H44.4928L50.8394 38.1004L44.4928 49.0543H31.8103L25.8024 38.679L23.3506 40.1465L23.0295 39.6103L28.4977 49.0543H31.6233V51.9118H30.1522H42.8348L44.5528 49.0578L46.9659 50.5042L52.5645 40.838L50.8112 37.9346L53.2172 36.4917L47.8055 27.1535H44.1118V24.2925Z" fill="#B3B2B2"/>
<path d="M63.6068 24.2925H44.1121H46.1511L47.8057 27.1535H64.9721C64.5699 26.1728 64.1113 25.2168 63.6068 24.2925Z" fill="#B3B2B2"/>
<path d="M66.8272 24.2925H63.6028C64.1108 25.2168 64.5659 26.1728 64.9716 27.1535H68.0478C67.688 26.1763 67.2823 25.2238 66.8272 24.2925Z" fill="#006D97"/>
<path d="M46.1511 24.2925H44.1121V27.1535H47.8057L46.1511 24.2925Z" fill="#818080"/>
<path d="M38.1526 9.21436C38.0503 9.21436 37.9515 9.21436 37.8492 9.21788L28.6733 26.8147L28.691 26.8217L30.1515 24.2958H33.2172L41.0102 9.35547C40.0682 9.26022 39.1157 9.21436 38.1526 9.21436Z" fill="#B3B2B2"/>
<path d="M39.3308 6.37842L37.8491 9.21479C37.9514 9.21479 38.0502 9.21479 38.156 9.21479C39.1191 9.21479 40.0717 9.26065 41.0101 9.35238L42.4247 6.63948C41.4087 6.50542 40.375 6.41722 39.3308 6.37842Z" fill="#006D97"/>
<path d="M33.2181 24.2925H30.1524L28.6919 26.8219L31.2213 28.1308L33.2181 24.2925Z" fill="#818080"/>
<path d="M15.0035 20.7402C14.3685 21.5763 13.7794 22.4548 13.2361 23.3579L23.0293 39.6106L22.1544 38.1007L23.7772 35.2996L15.0035 20.7402Z" fill="#B3B2B2"/>
<path d="M13.4226 18.1191C12.7664 18.92 12.1526 19.7525 11.5811 20.6133L13.2356 23.358C13.7789 22.4513 14.368 21.5764 15.003 20.7403L13.4226 18.1191Z" fill="#006D97"/>
<path d="M25.5022 38.1641L25.8021 38.6791L25.8091 38.6721L25.5022 38.1641Z" fill="#B3B2B2"/>
<path d="M23.7766 35.3027L22.1538 38.1003L23.0287 39.6102L23.3497 40.1464L25.8016 38.6789L25.5017 38.1638L23.7766 35.3027Z" fill="#818080"/>
<path d="M28.4975 49.0547H11.3311C11.7368 50.0354 12.1918 50.9879 12.6999 51.9122H30.152L28.4975 49.0547Z" fill="#B3B2B2"/>
<path d="M11.3314 49.0547H8.25513C8.61496 50.0284 9.02419 50.9844 9.47576 51.9122H12.7002C12.1957 50.9879 11.7371 50.0354 11.3314 49.0547Z" fill="#006D97"/>
<path d="M31.623 49.0547H28.4973L30.1519 51.9122H31.623V49.0547Z" fill="#818080"/>
<path d="M53.2698 36.46L53.2169 36.4917L54.1482 38.1039L52.5642 40.838L61.3556 55.3903C61.9906 54.5507 62.5762 53.6722 63.1159 52.7656L53.2698 36.46Z" fill="#B3B2B2"/>
<path d="M63.1154 52.7622C62.5756 53.6724 61.99 54.5473 61.355 55.3904L62.939 58.0151C63.5881 57.2108 64.2019 56.3747 64.7734 55.5104L63.1154 52.7622Z" fill="#006D97"/>
<path d="M53.2173 36.4917L50.8113 37.9346L52.5646 40.838L54.1486 38.1004L53.2173 36.4917Z" fill="#818080"/>
<path d="M46.966 50.5044L46.1511 51.9085H42.8349L33.9307 66.683C34.9714 66.8347 36.0297 66.93 37.1022 66.9688L47.0083 50.5256L46.966 50.5044Z" fill="#B3B2B2"/>
<path d="M33.9305 66.6831L32.343 69.3219C33.3555 69.5089 34.3892 69.6465 35.4369 69.7347L37.1021 66.9689C36.0296 66.9336 34.9712 66.8348 33.9305 66.6831Z" fill="#006D97"/>
<path d="M44.552 49.0576L42.834 51.9116H46.1501L46.9651 50.504L44.552 49.0576Z" fill="#818080"/>
<path d="M93.1072 21.5977C91.7419 21.5977 90.5143 21.2978 89.4242 20.6946C88.3305 20.0948 87.4768 19.2623 86.8559 18.1969C86.235 17.135 85.9246 15.9461 85.9246 14.6267C85.9246 13.3002 86.235 12.1078 86.8559 11.0424C87.4768 9.98055 88.3376 9.14798 89.4383 8.54473C90.539 7.94499 91.7666 7.6416 93.1213 7.6416C94.1444 7.6416 95.0863 7.81094 95.9436 8.14961C96.8079 8.48828 97.5417 8.98218 98.145 9.6313L97.2277 10.5626C96.1553 9.47254 94.8006 8.92573 93.1637 8.92573C92.0806 8.92573 91.0928 9.17621 90.2003 9.67363C89.3148 10.1746 88.6198 10.8555 88.1118 11.7198C87.6109 12.5876 87.3639 13.5542 87.3639 14.6267C87.3639 15.6921 87.6109 16.6552 88.1118 17.5195C88.6198 18.3874 89.3148 19.0682 90.2003 19.5657C91.0928 20.0666 92.0806 20.3136 93.1637 20.3136C94.8076 20.3136 96.1623 19.7632 97.2277 18.6625L98.145 19.5798C97.5417 20.2395 96.8044 20.744 95.9295 21.0897C95.0616 21.4284 94.1232 21.5977 93.1072 21.5977Z" fill="white" fill-opacity="0.302"/>
<path d="M115.88 21.4847L112.734 17.0679C112.384 17.1067 112.021 17.1243 111.647 17.1243H107.95V21.4847H106.496V7.75439H111.647C113.397 7.75439 114.766 8.17421 115.753 9.0103C116.748 9.84992 117.249 11 117.249 12.4676C117.249 13.54 116.974 14.4502 116.431 15.1911C115.894 15.9248 115.122 16.454 114.116 16.7715L117.461 21.4847H115.88ZM111.605 15.8966C112.959 15.8966 113.993 15.5968 114.709 14.9935C115.432 14.3938 115.796 13.5506 115.796 12.4676C115.796 11.3493 115.432 10.492 114.709 9.89931C113.993 9.30664 112.959 9.0103 111.605 9.0103H107.95V15.8966H111.605Z" fill="white" fill-opacity="0.302"/>
<path d="M135.654 20.2288V21.4847H125.932V7.75439H135.358V9.0103H127.385V13.8928H134.483V15.1346H127.385V20.2288H135.654Z" fill="white" fill-opacity="0.302"/>
<path d="M152.932 17.8158H145.284L143.633 21.4847H142.123L148.403 7.75439H149.828L156.107 21.4847H154.569L152.932 17.8158ZM152.396 16.6445L149.108 9.26431L145.806 16.6445H152.396Z" fill="white" fill-opacity="0.302"/>
<path d="M166.296 9.0103H161.484V7.75439H172.576V9.0103H167.75V21.4847H166.296V9.0103Z" fill="white" fill-opacity="0.302"/>
<path d="M180.143 7.75439H181.596V21.4847H180.143V7.75439Z" fill="white" fill-opacity="0.302"/>
<path d="M202.739 7.75439L196.671 21.4847H195.231L189.149 7.75439H190.716L195.979 19.6785L201.271 7.75439H202.739Z" fill="white" fill-opacity="0.302"/>
<path d="M219.993 20.2288V21.4847H210.27V7.75439H219.696V9.0103H211.723V13.8928H218.821V15.1346H211.723V20.2288H219.993Z" fill="white" fill-opacity="0.302"/>
<path d="M92.2395 20.7305C90.8743 20.7305 89.6466 20.4306 88.5565 19.8274C87.4629 19.2276 86.6091 18.3951 85.9882 17.3297C85.3673 16.2678 85.0569 15.0789 85.0569 13.7595C85.0569 12.4331 85.3673 11.2406 85.9882 10.1752C86.6091 9.11336 87.4699 8.2808 88.5706 7.67754C89.6713 7.07781 90.899 6.77441 92.2537 6.77441C93.2767 6.77441 94.2187 6.94375 95.0759 7.28242C95.9402 7.62109 96.674 8.11499 97.2773 8.76411L96.36 9.69546C95.2876 8.60536 93.9329 8.05854 92.296 8.05854C91.2129 8.05854 90.2252 8.30902 89.3326 8.80644C88.4471 9.30739 87.7521 9.98827 87.2441 10.8526C86.7432 11.7204 86.4962 12.6871 86.4962 13.7595C86.4962 14.8249 86.7432 15.788 87.2441 16.6523C87.7521 17.5202 88.4471 18.2011 89.3326 18.6985C90.2252 19.1994 91.2129 19.4464 92.296 19.4464C93.94 19.4464 95.2946 18.896 96.36 17.7953L97.2773 18.7126C96.674 19.3723 95.9367 19.8768 95.0618 20.2225C94.194 20.5612 93.2556 20.7305 92.2395 20.7305Z" fill="white" fill-opacity="0.502"/>
<path d="M115.012 20.6175L111.866 16.2007C111.516 16.2395 111.153 16.2571 110.779 16.2571H107.082V20.6175H105.628V6.88721H110.779C112.529 6.88721 113.898 7.30702 114.885 8.14311C115.88 8.98274 116.381 10.1328 116.381 11.6004C116.381 12.6728 116.106 13.583 115.563 14.3239C115.027 15.0577 114.254 15.5868 113.249 15.9043L116.593 20.6175H115.012ZM110.737 15.0294C112.091 15.0294 113.125 14.7296 113.841 14.1263C114.564 13.5266 114.928 12.6834 114.928 11.6004C114.928 10.4821 114.564 9.6248 113.841 9.03213C113.125 8.43945 112.091 8.14311 110.737 8.14311H107.082V15.0294H110.737Z" fill="white" fill-opacity="0.502"/>
<path d="M134.788 19.3616V20.6175H125.065V6.88721H134.491V8.14311H126.518V13.0256H133.616V14.2674H126.518V19.3616H134.788Z" fill="white" fill-opacity="0.502"/>
<path d="M152.064 16.9486H144.416L142.765 20.6175H141.255L147.535 6.88721H148.96L155.239 20.6175H153.701L152.064 16.9486ZM151.528 15.7773L148.24 8.39712L144.938 15.7773H151.528Z" fill="white" fill-opacity="0.502"/>
<path d="M165.428 8.14311H160.616V6.88721H171.708V8.14311H166.882V20.6175H165.428V8.14311Z" fill="white" fill-opacity="0.502"/>
<path d="M179.276 6.88721H180.73V20.6175H179.276V6.88721Z" fill="white" fill-opacity="0.502"/>
<path d="M201.872 6.88721L195.804 20.6175H194.365L188.283 6.88721H189.849L195.113 18.8113L200.404 6.88721H201.872Z" fill="white" fill-opacity="0.502"/>
<path d="M219.125 19.3616V20.6175H209.402V6.88721H218.828V8.14311H210.856V13.0256H217.954V14.2674H210.856V19.3616H219.125Z" fill="white" fill-opacity="0.502"/>
<path d="M91.3728 19.8638C90.0076 19.8638 88.7799 19.5639 87.6898 18.9607C86.5962 18.3609 85.7424 17.5284 85.1215 16.463C84.5006 15.4011 84.1902 14.2122 84.1902 12.8928C84.1902 11.5664 84.5006 10.3739 85.1215 9.30854C85.7424 8.24667 86.6032 7.4141 87.7039 6.81084C88.8046 6.21111 90.0323 5.90771 91.387 5.90771C92.41 5.90771 93.352 6.07705 94.2092 6.41572C95.0735 6.75439 95.8073 7.24829 96.4106 7.89741L95.4933 8.82876C94.4209 7.73866 93.0662 7.19184 91.4293 7.19184C90.3462 7.19184 89.3585 7.44232 88.4659 7.93974C87.5804 8.4407 86.8854 9.12157 86.3774 9.98588C85.8765 10.8537 85.6295 11.8204 85.6295 12.8928C85.6295 13.9582 85.8765 14.9213 86.3774 15.7856C86.8854 16.6535 87.5804 17.3344 88.4659 17.8318C89.3585 18.3327 90.3462 18.5797 91.4293 18.5797C93.0733 18.5797 94.4279 18.0293 95.4933 16.9287L96.4106 17.8459C95.8073 18.5056 95.07 19.0101 94.1951 19.3558C93.3273 19.6945 92.3889 19.8638 91.3728 19.8638Z" fill="white"/>
<path d="M114.146 19.7508L110.999 15.334C110.65 15.3728 110.287 15.3904 109.913 15.3904H106.215V19.7508H104.762V6.02051H109.913C111.662 6.02051 113.031 6.44032 114.019 7.27641C115.014 8.11604 115.515 9.26611 115.515 10.7337C115.515 11.8061 115.24 12.7163 114.696 13.4572C114.16 14.191 113.388 14.7201 112.382 15.0376L115.726 19.7508H114.146ZM109.87 14.1627C111.225 14.1627 112.259 13.8629 112.975 13.2596C113.698 12.6599 114.061 11.8167 114.061 10.7337C114.061 9.61537 113.698 8.7581 112.975 8.16543C112.259 7.57275 111.225 7.27641 109.87 7.27641H106.215V14.1627H109.87Z" fill="white"/>
<path d="M133.921 18.4949V19.7508H124.198V6.02051H133.625V7.27641H125.652V12.1589H132.75V13.4007H125.652V18.4949H133.921Z" fill="white"/>
<path d="M151.198 16.0819H143.55L141.899 19.7508H140.389L146.668 6.02051H148.093L154.373 19.7508H152.835L151.198 16.0819ZM150.662 14.9106L147.374 7.53042L144.072 14.9106H150.662Z" fill="white"/>
<path d="M164.562 7.27641H159.75V6.02051H170.841V7.27641H166.015V19.7508H164.562V7.27641Z" fill="white"/>
<path d="M178.408 6.02051H179.862V19.7508H178.408V6.02051Z" fill="white"/>
<path d="M201.005 6.02051L194.938 19.7508H193.498L187.416 6.02051H188.983L194.246 17.9446L199.538 6.02051H201.005Z" fill="white"/>
<path d="M218.258 18.4949V19.7508H208.536V6.02051H217.962V7.27641H209.989V12.1589H217.087V13.4007H209.989V18.4949H218.258Z" fill="white"/>
<path d="M101.81 55.4146V69.1307H100.427V58.1521L95.0361 67.3809H94.3447L88.9541 58.2086V69.1307H87.5571V55.4146H88.7566L94.7116 65.5888L100.61 55.4146H101.81Z" fill="white" fill-opacity="0.302"/>
<path d="M116.973 67.8748V69.1307H107.265V55.4146H116.677V56.6705H108.718V61.5389H115.816V62.7807H108.718V67.8748H116.973Z" fill="white" fill-opacity="0.302"/>
<path d="M121.37 55.4146H126.958C128.405 55.4146 129.685 55.7074 130.796 56.2895C131.915 56.8645 132.779 57.6724 133.393 58.7166C134.003 59.7538 134.31 60.9391 134.31 62.2726C134.31 63.6097 134.003 64.795 133.393 65.8287C132.779 66.8659 131.915 67.6738 130.796 68.2558C129.685 68.8415 128.405 69.1307 126.958 69.1307H121.37V55.4146ZM126.888 67.8748C128.08 67.8748 129.131 67.642 130.034 67.1693C130.938 66.6895 131.636 66.0333 132.137 65.1937C132.634 64.347 132.885 63.3733 132.885 62.2726C132.885 61.172 132.634 60.2053 132.137 59.3657C131.636 58.519 130.938 57.8629 130.034 57.3901C129.131 56.9103 128.08 56.6705 126.888 56.6705H122.824V67.8748H126.888Z" fill="white" fill-opacity="0.302"/>
<path d="M138.551 55.4146H140.004V69.1307H138.551V55.4146Z" fill="white" fill-opacity="0.302"/>
<path d="M154.074 65.4618H146.426L144.789 69.1307H143.279L149.545 55.4146H150.984L157.249 69.1307H155.725L154.074 65.4618ZM153.552 64.2906L150.25 56.9245L146.962 64.2906H153.552Z" fill="white" fill-opacity="0.302"/>
<path d="M100.943 54.5488V68.265H99.5602V57.2864L94.1697 66.5152H93.4782L88.0877 57.3429V68.265H86.6907V54.5488H87.8901L93.8451 64.7231L99.7436 54.5488H100.943Z" fill="white" fill-opacity="0.502"/>
<path d="M116.108 67.0091V68.265H106.4V54.5488H115.812V55.8047H107.853V60.6731H114.951V61.9149H107.853V67.0091H116.108Z" fill="white" fill-opacity="0.502"/>
<path d="M120.505 54.5488H126.093C127.539 54.5488 128.82 54.8416 129.931 55.4237C131.05 55.9988 131.914 56.8066 132.528 57.8509C133.138 58.8881 133.445 60.0734 133.445 61.4069C133.445 62.744 133.138 63.9293 132.528 64.963C131.914 66.0002 131.05 66.808 129.931 67.3901C128.82 67.9757 127.539 68.265 126.093 68.265H120.505V54.5488ZM126.022 67.0091C127.215 67.0091 128.266 66.7763 129.169 66.3036C130.072 65.8238 130.771 65.1676 131.272 64.328C131.769 63.4813 132.02 62.5076 132.02 61.4069C132.02 60.3062 131.769 59.3396 131.272 58.5C130.771 57.6533 130.072 56.9971 129.169 56.5244C128.266 56.0446 127.215 55.8047 126.022 55.8047H121.958V67.0091H126.022Z" fill="white" fill-opacity="0.502"/>
<path d="M137.686 54.5488H139.139V68.265H137.686V54.5488Z" fill="white" fill-opacity="0.502"/>
<path d="M153.209 64.5961H145.561L143.924 68.265H142.414L148.679 54.5488H150.119L156.384 68.265H154.86L153.209 64.5961ZM152.687 63.4248L149.385 56.0587L146.097 63.4248H152.687Z" fill="white" fill-opacity="0.502"/>
<path d="M100.078 53.6826V67.3988H98.695V56.4202L93.3044 65.649H92.613L87.2225 56.4767V67.3988H85.8254V53.6826H87.0249L92.9799 63.8569L98.8784 53.6826H100.078Z" fill="white"/>
<path d="M115.242 66.1429V67.3988H105.533V53.6826H114.945V54.9385H106.987V59.8069H114.085V61.0487H106.987V66.1429H115.242Z" fill="white"/>
<path d="M119.638 53.6826H125.227C126.673 53.6826 127.954 53.9754 129.065 54.5575C130.183 55.1326 131.047 55.9404 131.661 56.9847C132.272 58.0218 132.579 59.2072 132.579 60.5407C132.579 61.8778 132.272 63.0631 131.661 64.0968C131.047 65.1339 130.183 65.9418 129.065 66.5239C127.954 67.1095 126.673 67.3988 125.227 67.3988H119.638V53.6826ZM125.156 66.1429C126.348 66.1429 127.4 65.9101 128.303 65.4373C129.206 64.9576 129.904 64.3014 130.405 63.4618C130.903 62.6151 131.153 61.6414 131.153 60.5407C131.153 59.44 130.903 58.4734 130.405 57.6338C129.904 56.7871 129.206 56.1309 128.303 55.6582C127.4 55.1784 126.348 54.9385 125.156 54.9385H121.092V66.1429H125.156Z" fill="white"/>
<path d="M136.819 53.6826H138.273V67.3988H136.819V53.6826Z" fill="white"/>
<path d="M152.343 63.7299H144.694L143.057 67.3988H141.547L147.813 53.6826H149.252L155.518 67.3988H153.994L152.343 63.7299ZM151.82 62.5586L148.518 55.1925L145.23 62.5586H151.82Z" fill="white"/>
<path d="M92.2461 44.7681C90.8809 44.7681 89.6532 44.4718 88.5631 43.8791C87.4695 43.2794 86.6157 42.4468 85.9948 41.3814C85.3739 40.3089 85.0635 39.1165 85.0635 37.7971C85.0635 36.4812 85.3739 35.2924 85.9948 34.2269C86.6157 33.1545 87.4765 32.3184 88.5772 31.7151C89.6779 31.1154 90.9056 30.812 92.2602 30.812C93.2763 30.812 94.2147 30.9884 95.0825 31.3341C95.9468 31.6728 96.6806 32.1667 97.2839 32.8158L96.3525 33.7331C95.2801 32.6535 93.9289 32.1103 92.3026 32.1103C91.209 32.1103 90.2212 32.3607 89.3392 32.8582C88.4537 33.3591 87.7587 34.04 87.2507 34.9043C86.7498 35.7616 86.5028 36.7247 86.5028 37.7971C86.5028 38.8696 86.7498 39.8397 87.2507 40.704C87.7587 41.5613 88.4537 42.2386 89.3392 42.7361C90.2212 43.237 91.209 43.484 92.3026 43.484C93.9465 43.484 95.2977 42.9336 96.3525 41.8329L97.2839 42.7502C96.6806 43.4099 95.9433 43.9144 95.0684 44.2601C94.2006 44.5988 93.2621 44.7681 92.2461 44.7681Z" fill="white" fill-opacity="0.302"/>
<path d="M107.358 44.7681C106.004 44.7681 104.769 44.4682 103.661 43.865C102.56 43.2547 101.7 42.4221 101.079 41.3673C100.458 40.3054 100.147 39.1165 100.147 37.7971C100.147 36.4812 100.458 35.2959 101.079 34.2411C101.7 33.1792 102.56 32.3431 103.661 31.7292C104.769 31.1189 106.004 30.812 107.358 30.812C108.72 30.812 109.948 31.1154 111.041 31.7151C112.131 32.3184 112.989 33.1545 113.61 34.2269C114.238 35.2924 114.555 36.4812 114.555 37.7971C114.555 39.1165 114.238 40.3089 113.61 41.3814C112.989 42.4468 112.131 43.2794 111.041 43.8791C109.948 44.4718 108.72 44.7681 107.358 44.7681ZM107.358 43.484C108.448 43.484 109.433 43.2406 110.308 42.7502C111.183 42.2528 111.863 41.5719 112.354 40.704C112.851 39.8397 113.102 38.8696 113.102 37.7971C113.102 36.7247 112.851 35.758 112.354 34.8902C111.863 34.0153 111.183 33.3344 110.308 32.844C109.433 32.3572 108.448 32.1103 107.358 32.1103C106.275 32.1103 105.291 32.3572 104.409 32.844C103.534 33.3344 102.843 34.0153 102.335 34.8902C101.834 35.758 101.587 36.7247 101.587 37.7971C101.587 38.8696 101.834 39.8397 102.335 40.704C102.843 41.5719 103.534 42.2528 104.409 42.7502C105.291 43.2406 106.275 43.484 107.358 43.484Z" fill="white" fill-opacity="0.302"/>
<path d="M130.269 30.939V44.6552H129.07L120.25 33.5213V44.6552H118.797V30.939H119.996L128.844 42.0728V30.939H130.269Z" fill="white" fill-opacity="0.302"/>
<path d="M141.692 44.7681C140.327 44.7681 139.099 44.4718 138.009 43.8791C136.915 43.2794 136.062 42.4468 135.441 41.3814C134.82 40.3089 134.51 39.1165 134.51 37.7971C134.51 36.4812 134.82 35.2924 135.441 34.2269C136.062 33.1545 136.923 32.3184 138.023 31.7151C139.124 31.1154 140.352 30.812 141.706 30.812C142.722 30.812 143.661 30.9884 144.529 31.3341C145.393 31.6728 146.127 32.1667 146.73 32.8158L145.799 33.7331C144.726 32.6535 143.375 32.1103 141.749 32.1103C140.655 32.1103 139.667 32.3607 138.785 32.8582C137.9 33.3591 137.205 34.04 136.697 34.9043C136.196 35.7616 135.949 36.7247 135.949 37.7971C135.949 38.8696 136.196 39.8397 136.697 40.704C137.205 41.5613 137.9 42.2386 138.785 42.7361C139.667 43.237 140.655 43.484 141.749 43.484C143.393 43.484 144.744 42.9336 145.799 41.8329L146.73 42.7502C146.127 43.4099 145.389 43.9144 144.514 44.2601C143.647 44.5988 142.708 44.7681 141.692 44.7681Z" fill="white" fill-opacity="0.302"/>
<path d="M160.517 43.3993V44.6552H150.808V30.939H160.22V32.1949H152.262V37.0633H159.36V38.3051H152.262V43.3993H160.517Z" fill="white" fill-opacity="0.302"/>
<path d="M170.05 30.939C171.799 30.939 173.172 31.3588 174.17 32.1949C175.165 33.0239 175.666 34.1705 175.666 35.638C175.666 37.1056 175.165 38.2557 174.17 39.0812C173.172 39.9102 171.799 40.323 170.05 40.323H166.367V44.6552H164.913V30.939H170.05ZM170.007 39.053C171.369 39.053 172.41 38.7566 173.126 38.164C173.849 37.5642 174.212 36.7211 174.212 35.638C174.212 34.5303 173.849 33.6766 173.126 33.0839C172.41 32.4912 171.369 32.1949 170.007 32.1949H166.367V39.053H170.007Z" fill="white" fill-opacity="0.302"/>
<path d="M182.645 32.1949H177.833V30.939H188.924V32.1949H184.098V44.6552H182.645V32.1949Z" fill="white" fill-opacity="0.302"/>
<path d="M91.3797 43.9019C90.0144 43.9019 88.7867 43.6056 87.6966 43.0129C86.603 42.4131 85.7493 41.5806 85.1284 40.5152C84.5075 39.4427 84.197 38.2503 84.197 36.9309C84.197 35.615 84.5075 34.4261 85.1284 33.3607C85.7493 32.2883 86.6101 31.4522 87.7107 30.8489C88.8114 30.2492 90.0391 29.9458 91.3938 29.9458C92.4098 29.9458 93.3482 30.1222 94.2161 30.4679C95.0804 30.8066 95.8142 31.3005 96.4174 31.9496L95.4861 32.8668C94.4136 31.7873 93.0625 31.244 91.4361 31.244C90.3425 31.244 89.3547 31.4945 88.4727 31.9919C87.5873 32.4929 86.8923 33.1738 86.3843 34.0381C85.8833 34.8953 85.6364 35.8584 85.6364 36.9309C85.6364 38.0034 85.8833 38.9735 86.3843 39.8378C86.8923 40.6951 87.5873 41.3724 88.4727 41.8699C89.3547 42.3708 90.3425 42.6178 91.4361 42.6178C93.0801 42.6178 94.4313 42.0674 95.4861 40.9667L96.4174 41.884C95.8142 42.5437 95.0768 43.0482 94.2019 43.3939C93.3341 43.7326 92.3957 43.9019 91.3797 43.9019Z" fill="white" fill-opacity="0.502"/>
<path d="M106.493 43.9019C105.138 43.9019 103.904 43.602 102.796 42.9988C101.695 42.3885 100.834 41.5559 100.214 40.5011C99.5927 39.4392 99.2822 38.2503 99.2822 36.9309C99.2822 35.615 99.5927 34.4297 100.214 33.3748C100.834 32.313 101.695 31.4769 102.796 30.863C103.904 30.2527 105.138 29.9458 106.493 29.9458C107.855 29.9458 109.083 30.2492 110.176 30.8489C111.266 31.4522 112.124 32.2883 112.744 33.3607C113.372 34.4261 113.69 35.615 113.69 36.9309C113.69 38.2503 113.372 39.4427 112.744 40.5152C112.124 41.5806 111.266 42.4131 110.176 43.0129C109.083 43.6056 107.855 43.9019 106.493 43.9019ZM106.493 42.6178C107.583 42.6178 108.567 42.3743 109.442 41.884C110.317 41.3865 110.998 40.7057 111.489 39.8378C111.986 38.9735 112.236 38.0034 112.236 36.9309C112.236 35.8584 111.986 34.8918 111.489 34.024C110.998 33.1491 110.317 32.4682 109.442 31.9778C108.567 31.491 107.583 31.244 106.493 31.244C105.41 31.244 104.426 31.491 103.544 31.9778C102.669 32.4682 101.977 33.1491 101.469 34.024C100.969 34.8918 100.722 35.8584 100.722 36.9309C100.722 38.0034 100.969 38.9735 101.469 39.8378C101.977 40.7057 102.669 41.3865 103.544 41.884C104.426 42.3743 105.41 42.6178 106.493 42.6178Z" fill="white" fill-opacity="0.502"/>
<path d="M129.403 30.0728V43.7889H128.203L119.384 32.6551V43.7889H117.93V30.0728H119.13L127.978 41.2066V30.0728H129.403Z" fill="white" fill-opacity="0.502"/>
<path d="M140.826 43.9019C139.46 43.9019 138.233 43.6056 137.143 43.0129C136.049 42.4131 135.195 41.5806 134.574 40.5152C133.954 39.4427 133.643 38.2503 133.643 36.9309C133.643 35.615 133.954 34.4261 134.574 33.3607C135.195 32.2883 136.056 31.4522 137.157 30.8489C138.257 30.2492 139.485 29.9458 140.84 29.9458C141.856 29.9458 142.794 30.1222 143.662 30.4679C144.526 30.8066 145.26 31.3005 145.863 31.9496L144.932 32.8668C143.86 31.7873 142.508 31.244 140.882 31.244C139.789 31.244 138.801 31.4945 137.919 31.9919C137.033 32.4929 136.338 33.1738 135.83 34.0381C135.329 34.8953 135.082 35.8584 135.082 36.9309C135.082 38.0034 135.329 38.9735 135.83 39.8378C136.338 40.6951 137.033 41.3724 137.919 41.8699C138.801 42.3708 139.789 42.6178 140.882 42.6178C142.526 42.6178 143.877 42.0674 144.932 40.9667L145.863 41.884C145.26 42.5437 144.523 43.0482 143.648 43.3939C142.78 43.7326 141.842 43.9019 140.826 43.9019Z" fill="white" fill-opacity="0.502"/>
<path d="M159.65 42.533V43.7889H149.941V30.0728H159.354V31.3287H151.395V36.1971H158.493V37.4389H151.395V42.533H159.65Z" fill="white" fill-opacity="0.502"/>
<path d="M169.183 30.0728C170.933 30.0728 172.305 30.4926 173.304 31.3287C174.298 32.1577 174.799 33.3042 174.799 34.7718C174.799 36.2394 174.298 37.3895 173.304 38.215C172.305 39.044 170.933 39.4568 169.183 39.4568H165.5V43.7889H164.047V30.0728H169.183ZM169.141 38.1868C170.503 38.1868 171.543 37.8904 172.259 37.2977C172.983 36.698 173.346 35.8549 173.346 34.7718C173.346 33.6641 172.983 32.8103 172.259 32.2177C171.543 31.625 170.503 31.3287 169.141 31.3287H165.5V38.1868H169.141Z" fill="white" fill-opacity="0.502"/>
<path d="M181.78 31.3287H176.968V30.0728H188.059V31.3287H183.233V43.7889H181.78V31.3287Z" fill="white" fill-opacity="0.502"/>
<path d="M90.513 43.0357C89.1477 43.0357 87.92 42.7393 86.8299 42.1467C85.7363 41.5469 84.8826 40.7144 84.2617 39.649C83.6408 38.5765 83.3303 37.3841 83.3303 36.0647C83.3303 34.7488 83.6408 33.5599 84.2617 32.4945C84.8826 31.4221 85.7434 30.586 86.844 29.9827C87.9447 29.383 89.1724 29.0796 90.5271 29.0796C91.5431 29.0796 92.4815 29.256 93.3494 29.6017C94.2137 29.9404 94.9475 30.4343 95.5507 31.0834L94.6194 32.0006C93.5469 30.9211 92.1958 30.3778 90.5694 30.3778C89.4758 30.3778 88.488 30.6283 87.6061 31.1257C86.7206 31.6267 86.0256 32.3076 85.5176 33.1719C85.0166 34.0291 84.7697 34.9922 84.7697 36.0647C84.7697 37.1371 85.0166 38.1073 85.5176 38.9716C86.0256 39.8289 86.7206 40.5062 87.6061 41.0036C88.488 41.5046 89.4758 41.7515 90.5694 41.7515C92.2134 41.7515 93.5646 41.2012 94.6194 40.1005L95.5507 41.0178C94.9475 41.6775 94.2101 42.1819 93.3352 42.5277C92.4674 42.8663 91.529 43.0357 90.513 43.0357Z" fill="white"/>
<path d="M105.627 43.0357C104.272 43.0357 103.037 42.7358 101.929 42.1326C100.829 41.5222 99.968 40.6897 99.3471 39.6349C98.7262 38.573 98.4158 37.3841 98.4158 36.0647C98.4158 34.7488 98.7262 33.5635 99.3471 32.5086C99.968 31.4468 100.829 30.6107 101.929 29.9968C103.037 29.3865 104.272 29.0796 105.627 29.0796C106.988 29.0796 108.216 29.383 109.31 29.9827C110.4 30.586 111.257 31.4221 111.878 32.4945C112.506 33.5599 112.823 34.7488 112.823 36.0647C112.823 37.3841 112.506 38.5765 111.878 39.649C111.257 40.7144 110.4 41.5469 109.31 42.1467C108.216 42.7393 106.988 43.0357 105.627 43.0357ZM105.627 41.7515C106.717 41.7515 107.701 41.5081 108.576 41.0178C109.451 40.5203 110.132 39.8395 110.622 38.9716C111.119 38.1073 111.37 37.1371 111.37 36.0647C111.37 34.9922 111.119 34.0256 110.622 33.1578C110.132 32.2829 109.451 31.602 108.576 31.1116C107.701 30.6248 106.717 30.3778 105.627 30.3778C104.544 30.3778 103.559 30.6248 102.677 31.1116C101.802 31.602 101.111 32.2829 100.603 33.1578C100.102 34.0256 99.8551 34.9922 99.8551 36.0647C99.8551 37.1371 100.102 38.1073 100.603 38.9716C101.111 39.8395 101.802 40.5203 102.677 41.0178C103.559 41.5081 104.544 41.7515 105.627 41.7515Z" fill="white"/>
<path d="M128.538 29.2065V42.9227H127.338L118.519 31.7889V42.9227H117.065V29.2065H118.265L127.112 40.3404V29.2065H128.538Z" fill="white"/>
<path d="M139.96 43.0357C138.595 43.0357 137.368 42.7393 136.277 42.1467C135.184 41.5469 134.33 40.7144 133.709 39.649C133.088 38.5765 132.778 37.3841 132.778 36.0647C132.778 34.7488 133.088 33.5599 133.709 32.4945C134.33 31.4221 135.191 30.586 136.292 29.9827C137.392 29.383 138.62 29.0796 139.975 29.0796C140.991 29.0796 141.929 29.256 142.797 29.6017C143.661 29.9404 144.395 30.4343 144.998 31.0834L144.067 32.0006C142.994 30.9211 141.643 30.3778 140.017 30.3778C138.923 30.3778 137.936 30.6283 137.054 31.1257C136.168 31.6267 135.473 32.3076 134.965 33.1719C134.464 34.0291 134.217 34.9922 134.217 36.0647C134.217 37.1371 134.464 38.1073 134.965 38.9716C135.473 39.8289 136.168 40.5062 137.054 41.0036C137.936 41.5046 138.923 41.7515 140.017 41.7515C141.661 41.7515 143.012 41.2012 144.067 40.1005L144.998 41.0178C144.395 41.6775 143.658 42.1819 142.783 42.5277C141.915 42.8663 140.977 43.0357 139.96 43.0357Z" fill="white"/>
<path d="M158.784 41.6668V42.9227H149.075V29.2065H158.487V30.4624H150.528V35.3309H157.626V36.5726H150.528V41.6668H158.784Z" fill="white"/>
<path d="M168.318 29.2065C170.068 29.2065 171.44 29.6264 172.438 30.4624C173.433 31.2915 173.934 32.438 173.934 33.9056C173.934 35.3732 173.433 36.5233 172.438 37.3488C171.44 38.1778 170.068 38.5906 168.318 38.5906H164.635V42.9227H163.181V29.2065H168.318ZM168.276 37.3205C169.637 37.3205 170.678 37.0242 171.394 36.4315C172.117 35.8318 172.481 34.9887 172.481 33.9056C172.481 32.7979 172.117 31.9441 171.394 31.3515C170.678 30.7588 169.637 30.4624 168.276 30.4624H164.635V37.3205H168.276Z" fill="white"/>
<path d="M180.913 30.4624H176.101V29.2065H187.193V30.4624H182.367V42.9227H180.913V30.4624Z" fill="white"/>
</svg>
